<mxfile host="app.diagrams.net" modified="2023-07-04T10:35:19.110Z" agent="Mozilla/5.0 (Windows NT 10.0; Win64; x64) AppleWebKit/537.36 (KHTML, like Gecko) Chrome/114.0.0.0 Safari/537.36" etag="p6_89GwtxCYJGfR0yjOy" version="21.5.2" type="github">
  <diagram name="Page-1" id="OCHNUz_FZmkZ0Jkz8ia_">
    <mxGraphModel dx="1050" dy="541" grid="1" gridSize="10" guides="1" tooltips="1" connect="1" arrows="1" fold="1" page="1" pageScale="1" pageWidth="1169" pageHeight="827" math="0" shadow="0">
      <root>
        <mxCell id="0" />
        <mxCell id="1" parent="0" />
        <mxCell id="Sd0l3WHVSOWYdTkdYJbu-4" value="" style="edgeStyle=orthogonalEdgeStyle;rounded=0;orthogonalLoop=1;jettySize=auto;html=1;entryX=0;entryY=0.5;entryDx=0;entryDy=0;" parent="1" source="Sd0l3WHVSOWYdTkdYJbu-1" target="Sd0l3WHVSOWYdTkdYJbu-3" edge="1">
          <mxGeometry relative="1" as="geometry">
            <Array as="points">
              <mxPoint x="240" y="330" />
              <mxPoint x="240" y="130" />
            </Array>
          </mxGeometry>
        </mxCell>
        <mxCell id="Sd0l3WHVSOWYdTkdYJbu-6" value="" style="edgeStyle=orthogonalEdgeStyle;rounded=0;orthogonalLoop=1;jettySize=auto;html=1;entryX=0;entryY=0.5;entryDx=0;entryDy=0;" parent="1" source="Sd0l3WHVSOWYdTkdYJbu-1" target="Sd0l3WHVSOWYdTkdYJbu-5" edge="1">
          <mxGeometry relative="1" as="geometry">
            <Array as="points">
              <mxPoint x="240" y="330" />
              <mxPoint x="240" y="230" />
            </Array>
          </mxGeometry>
        </mxCell>
        <mxCell id="Sd0l3WHVSOWYdTkdYJbu-8" value="" style="edgeStyle=orthogonalEdgeStyle;rounded=0;orthogonalLoop=1;jettySize=auto;html=1;" parent="1" source="Sd0l3WHVSOWYdTkdYJbu-1" target="Sd0l3WHVSOWYdTkdYJbu-7" edge="1">
          <mxGeometry relative="1" as="geometry">
            <Array as="points">
              <mxPoint x="240" y="330" />
              <mxPoint x="240" y="414" />
            </Array>
          </mxGeometry>
        </mxCell>
        <mxCell id="Sd0l3WHVSOWYdTkdYJbu-11" value="" style="edgeStyle=orthogonalEdgeStyle;rounded=0;orthogonalLoop=1;jettySize=auto;html=1;" parent="1" source="Sd0l3WHVSOWYdTkdYJbu-1" target="Sd0l3WHVSOWYdTkdYJbu-10" edge="1">
          <mxGeometry relative="1" as="geometry">
            <Array as="points">
              <mxPoint x="240" y="330" />
              <mxPoint x="240" y="580" />
            </Array>
          </mxGeometry>
        </mxCell>
        <mxCell id="Sd0l3WHVSOWYdTkdYJbu-1" value="Test levels" style="rounded=1;whiteSpace=wrap;html=1;" parent="1" vertex="1">
          <mxGeometry x="80" y="300" width="120" height="60" as="geometry" />
        </mxCell>
        <mxCell id="Sd0l3WHVSOWYdTkdYJbu-15" value="" style="edgeStyle=orthogonalEdgeStyle;rounded=0;orthogonalLoop=1;jettySize=auto;html=1;entryX=0;entryY=0.5;entryDx=0;entryDy=0;" parent="1" source="Sd0l3WHVSOWYdTkdYJbu-3" target="Sd0l3WHVSOWYdTkdYJbu-18" edge="1">
          <mxGeometry relative="1" as="geometry" />
        </mxCell>
        <mxCell id="Sd0l3WHVSOWYdTkdYJbu-17" value="" style="edgeStyle=orthogonalEdgeStyle;rounded=0;orthogonalLoop=1;jettySize=auto;html=1;" parent="1" source="Sd0l3WHVSOWYdTkdYJbu-3" target="Sd0l3WHVSOWYdTkdYJbu-14" edge="1">
          <mxGeometry relative="1" as="geometry">
            <Array as="points">
              <mxPoint x="440" y="130" />
              <mxPoint x="440" y="40" />
            </Array>
          </mxGeometry>
        </mxCell>
        <mxCell id="Sd0l3WHVSOWYdTkdYJbu-3" value="Unit testing" style="rounded=1;whiteSpace=wrap;html=1;" parent="1" vertex="1">
          <mxGeometry x="290" y="100" width="120" height="60" as="geometry" />
        </mxCell>
        <mxCell id="Sd0l3WHVSOWYdTkdYJbu-13" value="" style="edgeStyle=orthogonalEdgeStyle;rounded=0;orthogonalLoop=1;jettySize=auto;html=1;" parent="1" source="Sd0l3WHVSOWYdTkdYJbu-5" target="Sd0l3WHVSOWYdTkdYJbu-12" edge="1">
          <mxGeometry relative="1" as="geometry" />
        </mxCell>
        <mxCell id="Sd0l3WHVSOWYdTkdYJbu-5" value="Integration Testing" style="rounded=1;whiteSpace=wrap;html=1;" parent="1" vertex="1">
          <mxGeometry x="290" y="200" width="120" height="60" as="geometry" />
        </mxCell>
        <mxCell id="Sd0l3WHVSOWYdTkdYJbu-21" value="" style="edgeStyle=orthogonalEdgeStyle;rounded=0;orthogonalLoop=1;jettySize=auto;html=1;entryX=0;entryY=0.5;entryDx=0;entryDy=0;" parent="1" source="Sd0l3WHVSOWYdTkdYJbu-7" target="Sd0l3WHVSOWYdTkdYJbu-27" edge="1">
          <mxGeometry relative="1" as="geometry">
            <mxPoint x="460" y="414" as="targetPoint" />
          </mxGeometry>
        </mxCell>
        <mxCell id="Sd0l3WHVSOWYdTkdYJbu-22" value="" style="edgeStyle=orthogonalEdgeStyle;rounded=0;orthogonalLoop=1;jettySize=auto;html=1;" parent="1" source="Sd0l3WHVSOWYdTkdYJbu-7" target="Sd0l3WHVSOWYdTkdYJbu-19" edge="1">
          <mxGeometry relative="1" as="geometry">
            <Array as="points">
              <mxPoint x="440" y="414" />
              <mxPoint x="440" y="330" />
            </Array>
          </mxGeometry>
        </mxCell>
        <mxCell id="Sd0l3WHVSOWYdTkdYJbu-7" value="System testing" style="rounded=1;whiteSpace=wrap;html=1;" parent="1" vertex="1">
          <mxGeometry x="290" y="384" width="120" height="60" as="geometry" />
        </mxCell>
        <mxCell id="Sd0l3WHVSOWYdTkdYJbu-30" value="" style="edgeStyle=orthogonalEdgeStyle;rounded=0;orthogonalLoop=1;jettySize=auto;html=1;" parent="1" source="Sd0l3WHVSOWYdTkdYJbu-10" target="Sd0l3WHVSOWYdTkdYJbu-29" edge="1">
          <mxGeometry relative="1" as="geometry" />
        </mxCell>
        <mxCell id="Sd0l3WHVSOWYdTkdYJbu-10" value="Acceptance testing" style="rounded=1;whiteSpace=wrap;html=1;" parent="1" vertex="1">
          <mxGeometry x="280" y="550" width="120" height="60" as="geometry" />
        </mxCell>
        <mxCell id="Sd0l3WHVSOWYdTkdYJbu-12" value="Map testing" style="rounded=1;whiteSpace=wrap;html=1;" parent="1" vertex="1">
          <mxGeometry x="470" y="200" width="120" height="60" as="geometry" />
        </mxCell>
        <mxCell id="Sd0l3WHVSOWYdTkdYJbu-14" value="Actor testing" style="rounded=1;whiteSpace=wrap;html=1;" parent="1" vertex="1">
          <mxGeometry x="465" y="10" width="120" height="60" as="geometry" />
        </mxCell>
        <mxCell id="Sd0l3WHVSOWYdTkdYJbu-18" value="Component testing" style="rounded=1;whiteSpace=wrap;html=1;" parent="1" vertex="1">
          <mxGeometry x="465" y="100" width="120" height="60" as="geometry" />
        </mxCell>
        <mxCell id="Sd0l3WHVSOWYdTkdYJbu-19" value="Smoke testing" style="rounded=1;whiteSpace=wrap;html=1;" parent="1" vertex="1">
          <mxGeometry x="465" y="300" width="120" height="60" as="geometry" />
        </mxCell>
        <mxCell id="Sd0l3WHVSOWYdTkdYJbu-25" value="" style="edgeStyle=orthogonalEdgeStyle;rounded=0;orthogonalLoop=1;jettySize=auto;html=1;exitX=1;exitY=0.5;exitDx=0;exitDy=0;entryX=0;entryY=0.5;entryDx=0;entryDy=0;" parent="1" source="Sd0l3WHVSOWYdTkdYJbu-7" target="Sd0l3WHVSOWYdTkdYJbu-26" edge="1">
          <mxGeometry relative="1" as="geometry">
            <mxPoint x="410" y="509.5" as="sourcePoint" />
            <Array as="points">
              <mxPoint x="440" y="414" />
              <mxPoint x="440" y="490" />
            </Array>
          </mxGeometry>
        </mxCell>
        <mxCell id="Sd0l3WHVSOWYdTkdYJbu-26" value="Full build testing" style="rounded=1;whiteSpace=wrap;html=1;" parent="1" vertex="1">
          <mxGeometry x="465" y="460" width="120" height="60" as="geometry" />
        </mxCell>
        <mxCell id="Sd0l3WHVSOWYdTkdYJbu-27" value="Testing without input layer" style="rounded=1;whiteSpace=wrap;html=1;" parent="1" vertex="1">
          <mxGeometry x="465" y="384" width="120" height="60" as="geometry" />
        </mxCell>
        <mxCell id="Sd0l3WHVSOWYdTkdYJbu-29" value="Alpha testing" style="rounded=1;whiteSpace=wrap;html=1;" parent="1" vertex="1">
          <mxGeometry x="465" y="530" width="120" height="60" as="geometry" />
        </mxCell>
        <mxCell id="Sd0l3WHVSOWYdTkdYJbu-34" value="" style="edgeStyle=orthogonalEdgeStyle;rounded=0;orthogonalLoop=1;jettySize=auto;html=1;" parent="1" source="Sd0l3WHVSOWYdTkdYJbu-31" target="Sd0l3WHVSOWYdTkdYJbu-33" edge="1">
          <mxGeometry relative="1" as="geometry" />
        </mxCell>
        <mxCell id="Sd0l3WHVSOWYdTkdYJbu-38" value="" style="edgeStyle=orthogonalEdgeStyle;rounded=0;orthogonalLoop=1;jettySize=auto;html=1;" parent="1" source="Sd0l3WHVSOWYdTkdYJbu-31" target="Sd0l3WHVSOWYdTkdYJbu-37" edge="1">
          <mxGeometry relative="1" as="geometry" />
        </mxCell>
        <mxCell id="Sd0l3WHVSOWYdTkdYJbu-31" value="Beta testing" style="rounded=1;whiteSpace=wrap;html=1;" parent="1" vertex="1">
          <mxGeometry x="465" y="600" width="120" height="60" as="geometry" />
        </mxCell>
        <mxCell id="Sd0l3WHVSOWYdTkdYJbu-32" value="" style="edgeStyle=orthogonalEdgeStyle;rounded=0;orthogonalLoop=1;jettySize=auto;html=1;exitX=1;exitY=0.5;exitDx=0;exitDy=0;entryX=0;entryY=0.5;entryDx=0;entryDy=0;" parent="1" source="Sd0l3WHVSOWYdTkdYJbu-10" target="Sd0l3WHVSOWYdTkdYJbu-31" edge="1">
          <mxGeometry relative="1" as="geometry">
            <mxPoint x="410" y="590" as="sourcePoint" />
            <mxPoint x="475" y="570" as="targetPoint" />
          </mxGeometry>
        </mxCell>
        <mxCell id="Sd0l3WHVSOWYdTkdYJbu-33" value="Open Beta testing" style="rounded=1;whiteSpace=wrap;html=1;" parent="1" vertex="1">
          <mxGeometry x="640" y="550" width="120" height="60" as="geometry" />
        </mxCell>
        <mxCell id="Sd0l3WHVSOWYdTkdYJbu-37" value="Closed Beta testing" style="rounded=1;whiteSpace=wrap;html=1;" parent="1" vertex="1">
          <mxGeometry x="640" y="630" width="120" height="60" as="geometry" />
        </mxCell>
      </root>
    </mxGraphModel>
  </diagram>
</mxfile>
